<?xml version="1.0" standalone="no"?><!DOCTYPE svg PUBLIC "-//W3C//DTD SVG 1.1//EN" "http://www.w3.org/Graphics/SVG/1.1/DTD/svg11.dtd"><svg t="1582353494696" class="icon" viewBox="0 0 1024 1024" version="1.1" xmlns="http://www.w3.org/2000/svg" p-id="2593" xmlns:xlink="http://www.w3.org/1999/xlink" width="200" height="200"><defs><style type="text/css"></style></defs><path d="M512 32C246.4 32 32 246.4 32 512s214.4 480 480 480 480-214.4 480-480S777.6 32 512 32m201.6 681.6c-12.8 12.8-35.2 12.8-48 0L512 560l-153.6 153.6c-12.8 12.8-35.2 12.8-48 0-12.8-12.8-12.8-35.2 0-48l153.6-153.6-153.6-153.6c-12.8-12.8-12.8-35.2 0-48 12.8-12.8 35.2-12.8 48 0l153.6 153.6 153.6-153.6c12.8-12.8 35.2-12.8 48 0 12.8 12.8 12.8 35.2 0 48L560 512l153.6 153.6c16 12.8 16 35.2 0 48m0 0z" fill="#e4b8ad" p-id="2594"></path></svg>