<?xml version="1.0" standalone="no"?><!DOCTYPE svg PUBLIC "-//W3C//DTD SVG 1.1//EN" "http://www.w3.org/Graphics/SVG/1.1/DTD/svg11.dtd"><svg t="1582355670792" class="icon" viewBox="0 0 1024 1024" version="1.1" xmlns="http://www.w3.org/2000/svg" p-id="4101" xmlns:xlink="http://www.w3.org/1999/xlink" width="200" height="200"><defs><style type="text/css"></style></defs><path d="M510.07 1010.059c276.136 0 499.989-223.853 499.989-499.99 0-276.136-223.853-499.988-499.99-499.988-276.136 0-499.988 223.852-499.988 499.989 0 276.136 223.852 499.989 499.989 499.989zM407.346 794.95c-11.165 0-22.34-4.253-30.875-12.778L182.9 588.883c-17.078-17.05-17.098-44.71-0.048-61.79 17.049-17.068 44.72-17.087 61.789-0.038l162.706 162.464L794.578 302.86c17.068-17.069 44.73-17.04 61.789 0.039 17.05 17.078 17.03 44.74-0.049 61.79L438.222 782.172c-8.535 8.525-19.71 12.778-30.876 12.778z" fill="#83cb88" p-id="4102"></path></svg>