<?xml version="1.0" standalone="no"?><!DOCTYPE svg PUBLIC "-//W3C//DTD SVG 1.1//EN" "http://www.w3.org/Graphics/SVG/1.1/DTD/svg11.dtd"><svg t="1580711208222" class="icon" viewBox="0 0 1024 1024" version="1.1" xmlns="http://www.w3.org/2000/svg" p-id="3836" xmlns:xlink="http://www.w3.org/1999/xlink" width="200" height="200"><defs><style type="text/css"></style></defs><path d="M716.5 196.2L512.1 400.6 307.7 196.2c-30.8-30.8-80.7-30.8-111.4 0s-30.8 80.7 0 111.4L400.7 512 196.3 716.4c-30.8 30.8-30.8 80.7 0 111.4s80.7 30.8 111.4 0l204.4-204.4 204.4 204.4c30.8 30.8 80.7 30.8 111.4 0 30.8-30.8 30.8-80.7 0-111.4L623.5 512l204.4-204.4c30.8-30.8 30.8-80.7 0-111.4s-80.7-30.8-111.4 0z" fill="#707070" p-id="3837"></path></svg>