<?xml version="1.0" standalone="no"?><!DOCTYPE svg PUBLIC "-//W3C//DTD SVG 1.1//EN" "http://www.w3.org/Graphics/SVG/1.1/DTD/svg11.dtd"><svg t="1580711228904" class="icon" viewBox="0 0 1024 1024" version="1.1" xmlns="http://www.w3.org/2000/svg" p-id="4320" xmlns:xlink="http://www.w3.org/1999/xlink" width="200" height="200"><defs><style type="text/css"></style></defs><path d="M418.133333 256h315.733334c17.066667 0 34.133333 17.066667 34.133333 34.133333v315.733334c0 8.533333-8.533333 17.066667-17.066667 17.066666s-8.533333 0-8.533333-8.533333L409.6 281.6c-8.533333-8.533333-8.533333-17.066667 0-25.6h8.533333z m187.733334 512H290.133333c-17.066667 0-34.133333-17.066667-34.133333-34.133333V418.133333c0-8.533333 8.533333-17.066667 17.066667-17.066666s8.533333 0 8.533333 8.533333l332.8 332.8c8.533333 8.533333 8.533333 17.066667 0 25.6h-8.533333z" p-id="4321" fill="#707070"></path></svg>