<?xml version="1.0" standalone="no"?><!DOCTYPE svg PUBLIC "-//W3C//DTD SVG 1.1//EN" "http://www.w3.org/Graphics/SVG/1.1/DTD/svg11.dtd"><svg t="1570428667048" class="icon" viewBox="0 0 1024 1024" version="1.1" xmlns="http://www.w3.org/2000/svg" p-id="10144" xmlns:xlink="http://www.w3.org/1999/xlink" width="200" height="200"><defs><style type="text/css"></style></defs><path d="M335.872 888.32C156.16 888.32 10.24 742.4 10.24 562.688c0-179.2 145.92-325.632 325.632-325.632H834.56V145.92l162.304 121.856L834.048 389.12V299.008H333.824c-145.408 0-264.192 118.784-263.68 264.192 0 145.408 118.272 263.68 263.68 263.68h357.888c142.848 0 260.096-116.224 260.608-259.584 0-15.36 11.264-29.184 25.6-31.232 1.536-0.512 3.584-0.512 5.12-0.512 16.384 0 30.208 13.312 30.72 29.184v2.048c0 177.152-144.384 321.024-322.048 321.024H335.872z" p-id="10145" fill="#d5d5d5"></path></svg>