<?xml version="1.0" standalone="no"?><!DOCTYPE svg PUBLIC "-//W3C//DTD SVG 1.1//EN" "http://www.w3.org/Graphics/SVG/1.1/DTD/svg11.dtd"><svg t="1570429649889" class="icon" viewBox="0 0 1024 1024" version="1.1" xmlns="http://www.w3.org/2000/svg" p-id="4090" xmlns:xlink="http://www.w3.org/1999/xlink" width="200" height="200"><defs><style type="text/css"></style></defs><path d="M806.6 703.9H220.4c-13.6 0-24.7 11.1-24.7 24.7v14.5c0 13.6 11.1 24.7 24.7 24.7h586.1c13.6 0 24.7-11.1 24.7-24.7v-14.5c0-13.7-11-24.7-24.6-24.7zM806.6 512.1H220.4c-13.6 0-24.7 11.1-24.7 24.7v14.5c0 13.6 11.1 24.7 24.7 24.7h586.1c13.6 0 24.7-11.1 24.7-24.7v-14.5c0-13.6-11-24.7-24.6-24.7zM471.7 383.6h332.7c13.6 0 24.7-11.1 24.7-24.7v-14.5c0-13.6-11.1-24.7-24.7-24.7H471.7c-13.6 0-24.7 11.1-24.7 24.7v14.5c0 13.7 11.1 24.7 24.7 24.7zM211.1 243.8v215.7l186.8-107.9z" p-id="4091" fill="#d81e06"></path></svg>