<?xml version="1.0" standalone="no"?><!DOCTYPE svg PUBLIC "-//W3C//DTD SVG 1.1//EN" "http://www.w3.org/Graphics/SVG/1.1/DTD/svg11.dtd"><svg t="1582014331394" class="icon" viewBox="0 0 1024 1024" version="1.1" xmlns="http://www.w3.org/2000/svg" p-id="9207" xmlns:xlink="http://www.w3.org/1999/xlink" width="200" height="200"><defs><style type="text/css"></style></defs><path d="M827.847111 500.167111l109.818311 109.795556c8.874667 8.897422 8.874667 23.233422 0 32.108089s-23.233422 8.874667-32.108089 0l-109.818311-109.795556-109.3632 109.3632c-8.897422 8.897422-23.301689 8.897422-32.199111 0-8.874667-8.874667-8.874667-23.278933 0-32.176356l109.385956-109.3632-108.657778-108.680533c-8.874667-8.874667-8.874667-23.233422 0-32.108089s23.233422-8.874667 32.085333 0l108.680533 108.680533 109.795556-109.795556c8.897422-8.897422 23.278933-8.897422 32.176356 0s8.897422 23.278933 0 32.176356L827.847111 500.167111zM453.154133 873.494756l-188.302222-179.564089L147.956622 693.930667c-45.033244 0-68.266667-25.349689-68.266667-68.266667l0-227.555556c0-43.6224 22.505244-68.266667 68.266667-68.266667l116.895289 0 188.302222-179.564089c49.470578-46.353067 104.402489-27.306667 104.402489 52.132978l0 618.928356C557.556622 899.982222 503.6032 920.826311 453.154133 873.494756zM512.045511 216.769422c0-53.816889-22.983111-40.118044-46.216533-17.362489-45.033244 44.077511-121.696711 118.488178-180.929422 175.9232L170.712178 375.330133c-33.905778 0-45.511111 12.310756-45.511111 45.511111l0 182.044444c0 33.905778 10.899911 45.511111 45.511111 45.511111l121.150578 0c58.254222 61.917867 130.753422 138.24 173.761422 180.679111 23.483733 23.210667 46.421333 31.698489 46.421333-19.979378C512.045511 700.188444 512.045511 327.953067 512.045511 216.769422z" p-id="9208" fill="#ffffff"></path></svg>