<?xml version="1.0" standalone="no"?><!DOCTYPE svg PUBLIC "-//W3C//DTD SVG 1.1//EN" "http://www.w3.org/Graphics/SVG/1.1/DTD/svg11.dtd"><svg t="1570429399142" class="icon" viewBox="0 0 1024 1024" version="1.1" xmlns="http://www.w3.org/2000/svg" p-id="3285" xmlns:xlink="http://www.w3.org/1999/xlink" width="200" height="200"><defs><style type="text/css"></style></defs><path d="M802.816 100.864c0 280.064 0 549.888 0 820.736-19.456 7.168-35.328 2.56-51.712-9.216-83.968-59.392-168.448-118.784-253.952-176.64-12.288-8.192-29.184-13.312-44.032-13.824-47.616-1.536-95.232-0.512-143.36-0.512-57.856-0.512-86.016-28.16-86.016-86.528-0.512-83.456-0.512-166.912 0-250.88 0-55.808 27.648-83.456 82.944-83.456 49.664 0 98.816 0.512 148.48-0.512 12.8-0.512 27.136-4.608 37.888-11.264C578.56 233.984 662.528 177.664 748.032 122.88 762.88 113.664 780.8 109.568 802.816 100.864zM757.76 169.984c-10.24 6.144-16.896 10.24-23.04 14.336C660.48 232.96 586.752 281.6 512 329.216c-13.312 8.704-31.232 12.8-47.616 13.312-51.2 1.536-102.4 0.512-153.6 0.512-32.256 0-44.032 10.752-44.544 41.984-0.512 83.456-0.512 166.912 0 250.88 0 31.232 10.24 39.936 42.496 40.448 51.2 0 102.4-1.024 153.6 0.512 15.872 0.512 33.792 5.632 47.104 14.336 75.776 50.688 150.016 103.424 225.28 155.136 6.656 4.608 13.824 8.704 23.04 14.848C757.76 630.272 757.76 401.92 757.76 169.984z" p-id="3286" fill="#d5d5d5"></path></svg>